#N canvas 747 14 341 628 10;
#X obj 100 31 inlet;
#X obj 136 89 == 0;
#X obj 67 89 == 1;
#X obj 155 142 spigot;
#X msg 115 118 0;
#X floatatom 115 179 5 0 0 0 - - -;
#X obj 47 137 spigot;
#X obj 54 164 +;
#X floatatom 151 474 5 0 0 0 - - -;
#X obj 119 497 spigot;
#X obj 128 451 == 1;
#X floatatom 99 525 5 0 0 0 - - -;
#X obj 151 533 outlet;
#X obj 55 215 change_n 2;
#X obj 65 256 == 0;
#X obj 124 284 &&;
#X obj 134 247 == 1;
#X obj 77 333 == 0;
#X obj 136 332 == 1;
#X obj 70 374 spigot;
#X obj 168 403 spigot;
#X floatatom 24 349 5 0 0 0 - - -;
#X msg 122 368 3;
#X msg 33 114 1;
#X obj 104 59 int;
#X connect 0 0 24 0;
#X connect 1 0 3 1;
#X connect 1 0 4 0;
#X connect 2 0 6 1;
#X connect 2 0 23 0;
#X connect 3 0 5 0;
#X connect 4 0 3 0;
#X connect 5 0 7 1;
#X connect 5 0 13 0;
#X connect 5 0 16 0;
#X connect 5 0 21 0;
#X connect 6 0 7 0;
#X connect 7 0 5 0;
#X connect 8 0 9 1;
#X connect 8 0 9 0;
#X connect 9 0 11 0;
#X connect 9 0 12 0;
#X connect 10 0 8 0;
#X connect 13 0 14 0;
#X connect 14 0 15 0;
#X connect 15 0 17 0;
#X connect 15 0 18 0;
#X connect 16 0 15 1;
#X connect 17 0 19 1;
#X connect 18 0 20 1;
#X connect 18 0 22 0;
#X connect 19 0 10 0;
#X connect 20 0 10 0;
#X connect 21 0 19 0;
#X connect 22 0 20 0;
#X connect 23 0 6 0;
#X connect 24 0 2 0;
#X connect 24 0 1 0;
